<svg width="680" height="480" viewBox="0 0 680 480" xmlns="http://www.w3.org/2000/svg" font-family="-apple-system,BlinkMacSystemFont,'Segoe UI',sans-serif">
<rect width="680" height="480" fill="#fafaf8"/>

<!-- Grid -->
<line x1="154.3" y1="28" x2="154.3" y2="432" stroke="#e8e6df" stroke-width="1"/>
<text x="154.3" y="448" text-anchor="middle" font-size="9" fill="#bbb">0.54</text>
<line x1="250.6" y1="28" x2="250.6" y2="432" stroke="#e8e6df" stroke-width="1"/>
<text x="250.6" y="448" text-anchor="middle" font-size="9" fill="#bbb">0.56</text>
<line x1="347.0" y1="28" x2="347.0" y2="432" stroke="#e8e6df" stroke-width="1"/>
<text x="347.0" y="448" text-anchor="middle" font-size="9" fill="#bbb">0.58</text>
<line x1="443.3" y1="28" x2="443.3" y2="432" stroke="#e8e6df" stroke-width="1"/>
<text x="443.3" y="448" text-anchor="middle" font-size="9" fill="#bbb">0.60</text>
<line x1="539.6" y1="28" x2="539.6" y2="432" stroke="#e8e6df" stroke-width="1"/>
<text x="539.6" y="448" text-anchor="middle" font-size="9" fill="#bbb">0.62</text>
<line x1="635.9" y1="28" x2="635.9" y2="432" stroke="#e8e6df" stroke-width="1"/>
<text x="635.9" y="448" text-anchor="middle" font-size="9" fill="#bbb">0.64</text>
<line x1="58" y1="409.6" x2="660" y2="409.6" stroke="#e8e6df" stroke-width="1"/>
<text x="53" y="413.1" text-anchor="end" font-size="9" fill="#bbb">0.60</text>
<line x1="58" y1="353.4" x2="660" y2="353.4" stroke="#e8e6df" stroke-width="1"/>
<text x="53" y="356.9" text-anchor="end" font-size="9" fill="#bbb">0.65</text>
<line x1="58" y1="297.3" x2="660" y2="297.3" stroke="#e8e6df" stroke-width="1"/>
<text x="53" y="300.8" text-anchor="end" font-size="9" fill="#bbb">0.70</text>
<line x1="58" y1="241.2" x2="660" y2="241.2" stroke="#e8e6df" stroke-width="1"/>
<text x="53" y="244.7" text-anchor="end" font-size="9" fill="#bbb">0.75</text>
<line x1="58" y1="185.1" x2="660" y2="185.1" stroke="#e8e6df" stroke-width="1"/>
<text x="53" y="188.6" text-anchor="end" font-size="9" fill="#bbb">0.80</text>
<line x1="58" y1="129.0" x2="660" y2="129.0" stroke="#e8e6df" stroke-width="1"/>
<text x="53" y="132.5" text-anchor="end" font-size="9" fill="#bbb">0.85</text>
<line x1="58" y1="72.9" x2="660" y2="72.9" stroke="#e8e6df" stroke-width="1"/>
<text x="53" y="76.4" text-anchor="end" font-size="9" fill="#bbb">0.90</text>
<line x1="58" y1="72.9" x2="660" y2="72.9" stroke="#7f77dd" stroke-dasharray="5 4" stroke-width="1" opacity="0.35"/>
<text x="656" y="69.9" text-anchor="end" font-size="8" fill="#7f77dd" opacity="0.6">CCFI acute</text>
<line x1="58" y1="145.8" x2="660" y2="145.8" stroke="#d85a30" stroke-dasharray="5 4" stroke-width="1" opacity="0.35"/>
<text x="656" y="142.8" text-anchor="end" font-size="8" fill="#d85a30" opacity="0.6">Western ceiling</text>
<line x1="58" y1="190.7" x2="660" y2="190.7" stroke="#7f77dd" stroke-dasharray="5 4" stroke-width="1" opacity="0.35"/>
<text x="656" y="187.7" text-anchor="end" font-size="8" fill="#7f77dd" opacity="0.6">CCFI asymptote</text>
<defs><marker id="a" viewBox="0 0 10 10" refX="8" refY="5" markerWidth="4" markerHeight="4" orient="auto"><path d="M1 1L9 5L1 9" fill="none" stroke="#7f77dd" stroke-width="2"/></marker></defs>
<path d="M327.7 55.9 L465.9 198.2" stroke="#7f77dd" stroke-width="1.2" stroke-dasharray="3 3" fill="none" marker-end="url(#a)" opacity="0.4"/>
<path d="M465.9 198.2 L562.2 183.1" stroke="#7f77dd" stroke-width="1.2" stroke-dasharray="3 3" fill="none" marker-end="url(#a)" opacity="0.4"/>
<circle cx="327.7" cy="55.9" r="6.5" fill="#7f77dd" stroke="#fafaf8" stroke-width="1.5" opacity="0.92"/>
<text x="327.7" y="46.9" text-anchor="middle" font-size="8.5" fill="#7f77dd" font-weight="600">Modi 2014</text>
<circle cx="165.4" cy="145.7" r="5.5" fill="#d85a30" stroke="#fafaf8" stroke-width="1.5" opacity="0.92"/>
<text x="165.4" y="137.7" text-anchor="middle" font-size="8" fill="#d85a30" font-weight="400">Trump</text>
<circle cx="269.4" cy="144.5" r="5.5" fill="#d85a30" stroke="#fafaf8" stroke-width="1.5" opacity="0.92"/>
<text x="269.4" y="136.5" text-anchor="middle" font-size="8" fill="#d85a30" font-weight="400">Mandela</text>
<circle cx="280.5" cy="147.5" r="5.5" fill="#e24b4a" stroke="#fafaf8" stroke-width="1.5" opacity="0.92"/>
<text x="280.5" y="139.5" text-anchor="middle" font-size="8" fill="#e24b4a" font-weight="400">Putin</text>
<circle cx="562.2" cy="183.1" r="6.5" fill="#7f77dd" stroke="#fafaf8" stroke-width="1.5" opacity="0.92"/>
<text x="562.2" y="174.1" text-anchor="middle" font-size="8.5" fill="#7f77dd" font-weight="600">Modi 2024</text>
<circle cx="465.9" cy="198.2" r="6.5" fill="#7f77dd" stroke="#fafaf8" stroke-width="1.5" opacity="0.92"/>
<text x="465.9" y="189.2" text-anchor="middle" font-size="8.5" fill="#7f77dd" font-weight="600">Modi 2019</text>
<circle cx="562.7" cy="197.0" r="5.5" fill="#1d9e75" stroke="#fafaf8" stroke-width="1.5" opacity="0.92"/>
<text x="562.7" y="189.0" text-anchor="middle" font-size="8" fill="#1d9e75" font-weight="400">Sunflower</text>
<circle cx="404.8" cy="264.2" r="5.5" fill="#ba7517" stroke="#fafaf8" stroke-width="1.5" opacity="0.92"/>
<text x="404.8" y="256.2" text-anchor="middle" font-size="8" fill="#ba7517" font-weight="400">Charlie Hebdo</text>
<circle cx="413.4" cy="274.7" r="5.5" fill="#1d9e75" stroke="#fafaf8" stroke-width="1.5" opacity="0.92"/>
<text x="413.4" y="266.7" text-anchor="middle" font-size="8" fill="#1d9e75" font-weight="400">Chávez</text>
<circle cx="547.8" cy="247.3" r="5.5" fill="#185fa5" stroke="#fafaf8" stroke-width="1.5" opacity="0.92"/>
<text x="547.8" y="239.3" text-anchor="middle" font-size="8" fill="#185fa5" font-weight="400">Ciolacu</text>
<circle cx="411.5" cy="281.3" r="5.5" fill="#1d9e75" stroke="#fafaf8" stroke-width="1.5" opacity="0.92"/>
<text x="411.5" y="273.3" text-anchor="middle" font-size="8" fill="#1d9e75" font-weight="400">Macron</text>
<circle cx="585.8" cy="261.6" r="6.5" fill="#993556" stroke="#fafaf8" stroke-width="1.5" opacity="0.92"/>
<text x="585.8" y="252.6" text-anchor="middle" font-size="8.5" fill="#993556" font-weight="600">Iran-Israel</text>
<circle cx="418.7" cy="296.9" r="5.5" fill="#185fa5" stroke="#fafaf8" stroke-width="1.5" opacity="0.92"/>
<text x="418.7" y="288.9" text-anchor="middle" font-size="8" fill="#185fa5" font-weight="400">Georgescu</text>
<circle cx="493.4" cy="299.9" r="5.5" fill="#e24b4a" stroke="#fafaf8" stroke-width="1.5" opacity="0.92"/>
<text x="493.4" y="291.9" text-anchor="middle" font-size="8" fill="#e24b4a" font-weight="400">Netanyahu</text>
<circle cx="433.6" cy="314.3" r="5.5" fill="#185fa5" stroke="#fafaf8" stroke-width="1.5" opacity="0.92"/>
<text x="433.6" y="306.3" text-anchor="middle" font-size="8" fill="#185fa5" font-weight="400">Simion</text>
<circle cx="462.5" cy="341.8" r="5.5" fill="#e24b4a" stroke="#fafaf8" stroke-width="1.5" opacity="0.92"/>
<text x="462.5" y="333.8" text-anchor="middle" font-size="8" fill="#e24b4a" font-weight="400">Zelensky</text>
<circle cx="461.6" cy="404.4" r="5.5" fill="#5f5e5a" stroke="#fafaf8" stroke-width="1.5" opacity="0.92"/>
<text x="461.6" y="396.4" text-anchor="middle" font-size="8" fill="#5f5e5a" font-weight="400">Orbán</text>
<text x="359" y="474" text-anchor="middle" font-size="10" fill="#888">PE — Polysemy Entropy</text>
<text x="11" y="230" text-anchor="middle" font-size="10" fill="#888" transform="rotate(-90,11,230)">ICI — Intra-contextual Incoherence</text><circle cx="62" cy="466" r="4" fill="#7f77dd"/>
<text x="69" y="470" font-size="8" fill="#666">CCFI (Non-Western)</text>
<circle cx="140" cy="466" r="4" fill="#d85a30"/>
<text x="147" y="470" font-size="8" fill="#666">Western ceiling</text>
<circle cx="218" cy="466" r="4" fill="#e24b4a"/>
<text x="225" y="470" font-size="8" fill="#666">Wartime</text>
<circle cx="296" cy="466" r="4" fill="#1d9e75"/>
<text x="303" y="470" font-size="8" fill="#666">Campaign</text>
<circle cx="374" cy="466" r="4" fill="#ba7517"/>
<text x="381" y="470" font-size="8" fill="#666">Flash Viral</text>
<circle cx="452" cy="466" r="4" fill="#185fa5"/>
<text x="459" y="470" font-size="8" fill="#666">Romanian Triad</text>
<circle cx="530" cy="466" r="4" fill="#993556"/>
<text x="537" y="470" font-size="8" fill="#666">Geopolitical Event</text>
<circle cx="608" cy="466" r="4" fill="#5f5e5a"/>
<text x="615" y="470" font-size="8" fill="#666">Institutional</text>
<text x="58" y="18" font-size="10" font-weight="600" fill="#444">SRM PE/ICI Correlation Map · 18 symbol-periods · Serban G.F. (2026) · DOI: 10.17605/OSF.IO/HYDNZ</text>
</svg>